<svg xmlns="http://www.w3.org/2000/svg" viewBox="0 0 512 512" role="img" aria-labelledby="title">
  <title>Signature Digital</title>
  <defs>
    <linearGradient id="mark-bg" x1="78" y1="58" x2="440" y2="462" gradientUnits="userSpaceOnUse">
      <stop stop-color="#050816"/>
      <stop offset=".52" stop-color="#070A12"/>
      <stop offset="1" stop-color="#0F172A"/>
    </linearGradient>
    <linearGradient id="mark-gradient" x1="126" y1="91" x2="394" y2="414" gradientUnits="userSpaceOnUse">
      <stop stop-color="#38BDF8"/>
      <stop offset=".45" stop-color="#8B5CF6"/>
      <stop offset="1" stop-color="#7C3AED"/>
    </linearGradient>
  </defs>
  <rect width="512" height="512" rx="112" fill="url(#mark-bg)"/>
  <path d="M373 112c-34-31-76-47-126-47-76 0-129 41-129 101 0 61 41 90 126 111 51 13 70 25 70 50 0 27-28 43-74 43-49 0-89-17-122-52l-36 58c38 42 91 63 158 63 82 0 139-39 139-104 0-58-38-88-121-109-52-13-73-25-73-52 0-25 24-42 61-42 38 0 68 12 95 37l32-57Z" fill="url(#mark-gradient)"/>
  <path d="M128 397h256" stroke="#38BDF8" stroke-width="16" stroke-linecap="round" opacity=".84"/>
  <path d="M392 104 120 408" stroke="#8B5CF6" stroke-width="14" stroke-linecap="round" opacity=".26"/>
</svg>
